<?xml version="1.0" encoding="UTF-8"?>
<!DOCTYPE svg PUBLIC "-//W3C//DTD SVG 1.1//EN" "http://www.w3.org/Graphics/SVG/1.1/DTD/svg11.dtd">
<!-- Creator: CorelDRAW X7 -->
<svg xmlns="http://www.w3.org/2000/svg" xml:space="preserve" width="12.3088mm" height="12.3092mm" version="1.1" style="shape-rendering:geometricPrecision; text-rendering:geometricPrecision; image-rendering:optimizeQuality; fill-rule:evenodd; clip-rule:evenodd"
viewBox="0 0 1221 1221"
 xmlns:xlink="http://www.w3.org/1999/xlink">
 <defs>
  <style type="text/css">
   <![CDATA[
    .fil0 {fill:#3E76BD}
   ]]>
  </style>
 </defs>
 <g id="Layer_x0020_1">
  <metadata id="CorelCorpID_0Corel-Layer"/>
  <g id="_260618128">
   <path class="fil0" d="M1221 559c0,-308 -256,-559 -569,-559 -159,0 -310,65 -417,179 -19,-19 -65,-42 -116,-5l-65 52c-30,24 -48,60 -53,107 -14,135 80,348 240,542 170,207 376,346 513,346l0 0c37,0 68,-10 93,-30l65 -52c18,-12 47,-52 28,-97 174,-100 281,-283 281,-483l0 0zm-341 541l-65 51c-15,13 -36,19 -61,19 -120,0 -315,-135 -473,-327 -150,-182 -242,-385 -229,-505 3,-33 15,-57 34,-72l65 -52c22,-16 41,-6 49,2l124 152c15,21 0,39 -8,46 -35,28 -57,70 -62,121 -9,82 25,178 91,258 72,88 172,143 261,143 42,0 80,-12 109,-36 15,-12 38,-11 49,2l124 152c17,25 -4,42 -8,46l0 0zm30 -100l-107 -130c-19,-21 -63,-50 -119,-10 -22,16 -47,25 -78,25 -74,0 -159,-48 -222,-124 -57,-70 -87,-152 -80,-221 4,-37 20,-67 44,-87 22,-18 55,-67 15,-118l-96 -116c99,-107 238,-168 385,-168 13,0 25,0 38,1l0 80 51 0 0 -74c225,39 400,220 426,446l-81 0 0 50 84 0c0,2 0,4 0,5 0,183 -99,350 -260,441l0 0zm0 0z"/>
   <path class="fil0" d="M539 639l26 -24c70,-67 115,-115 115,-176 0,-47 -30,-95 -102,-95 -38,0 -71,14 -94,33l14 31c15,-12 41,-27 71,-27 49,0 66,30 66,64 -1,49 -39,91 -124,171l-35 34 0 27 212 0 0 -37 -149 0 0 -1 0 0zm0 0z"/>
   <path class="fil0" d="M920 350l-48 0 -149 208 0 30 155 0 0 89 42 0 0 -89 47 0 0 -35 -47 0 0 -203 0 0zm-42 94l0 109 -109 0 0 -1 81 -111c9,-15 17,-30 28,-49l1 0c-1,17 -1,35 -1,52l0 0zm0 0z"/>
  </g>
 </g>
</svg>
