<?xml version="1.0" encoding="utf-8"?>
<!-- Generator: Adobe Illustrator 17.0.0, SVG Export Plug-In . SVG Version: 6.00 Build 0)  -->
<!DOCTYPE svg PUBLIC "-//W3C//DTD SVG 1.1//EN" "http://www.w3.org/Graphics/SVG/1.1/DTD/svg11.dtd">
<svg version="1.1" id="Layer_1" xmlns="http://www.w3.org/2000/svg" xmlns:xlink="http://www.w3.org/1999/xlink" x="0px" y="0px"
	 width="120px" height="96px" viewBox="0 0 120 96" enable-background="new 0 0 120 96" xml:space="preserve">
<g>
	<path fill="#71ACDE" d="M40.85,29.05h3.3c1.2,0,2.2-0.8,2.2-1.8v-14.2c0-1-1-1.8-2.2-1.8h-3.3c-1.3,0-2.3,0.8-2.3,1.8v14.2
		C38.65,28.25,39.65,29.05,40.85,29.05L40.85,29.05z"/>
	<path fill="#71ACDE" d="M75.85,29.05h3.3c1.2,0,2.2-0.8,2.2-1.8v-14.2c0-1-1-1.8-2.2-1.8h-3.3c-1.3,0-2.3,0.8-2.3,1.8v14.2
		C73.55,28.25,74.55,29.05,75.85,29.05L75.85,29.05z"/>
	<path fill="#71ACDE" d="M92.95,18.05h-8.9v10.9c0,2.4-2.2,4.4-4.9,4.4h-3.3c-2.7,0-4.9-2-4.9-4.4v-10.9h-21.8v10.9
		c0,2.4-2.2,4.4-4.9,4.4h-3.3c-2.7,0-4.9-2-4.9-4.4v-10.9h-8.9c-1.5,0-2.7,1.2-2.7,2.7v61.3c0,1.5,1.2,2.7,1.6,2.7h65.8
		c2.5,0,3.7-1.2,3.7-2.7v-61.3C95.55,19.25,94.35,18.05,92.95,18.05L92.95,18.05z M91.45,78.65c0,2.6-2.3,2.4-2.3,2.4h-24
		c0,0,14.7-7.3,26.3-17.8L91.45,78.65L91.45,78.65z M91.95,55.95c-1,4-3.2,8.6-7.3,5.6c-5.9-4.4-11.7-8.1-12.5,0.7
		c-0.6,7.4-14.2,17.5-17.2,19.5h-26c-0.4,0-0.9-0.4-0.9-0.9v-37.6c0-0.5,0.4-0.9,0.9-0.9h62.1c0.4,0,0.9,0.4,0.9,0.9V55.95
		L91.95,55.95z"/>
	<rect x="38.65" y="48.85" fill="#71ACDE" width="10.4" height="10.4"/>
	<rect x="55.75" y="48.85" fill="#71ACDE" width="10.3" height="10.4"/>
	<rect x="38.65" y="64.65" fill="#71ACDE" width="10.4" height="10.4"/>
	<path fill="#71ACDE" d="M55.75,74.95h3c2.2-2.1,5.5-5.5,7.4-7.8v-2.6h-10.4V74.95z"/>
	<path fill="#71ACDE" d="M72.25,53.75c1.1-1.1,2.3-1.3,3.4-1.3c2.1,0,4.5,1.2,6.9,2.8v-6.4h-10.3V53.75z"/>
</g>
</svg>
