<?xml version="1.0" encoding="utf-8"?>
<!-- Generator: Adobe Illustrator 17.0.0, SVG Export Plug-In . SVG Version: 6.00 Build 0)  -->
<!DOCTYPE svg PUBLIC "-//W3C//DTD SVG 1.1//EN" "http://www.w3.org/Graphics/SVG/1.1/DTD/svg11.dtd">
<svg version="1.1" id="Layer_1" xmlns="http://www.w3.org/2000/svg" xmlns:xlink="http://www.w3.org/1999/xlink" x="0px" y="0px"
	 width="120px" height="96px" viewBox="0 0 120 96" enable-background="new 0 0 120 96" xml:space="preserve">
<g>
	<path fill="#71ACDE" d="M45.15,63.9c-1.2,0-2.2,1-2.2,2.2s1,2.2,2.2,2.2s2.2-1,2.2-2.2S46.35,63.9,45.15,63.9L45.15,63.9z"/>
	<g>
		<path fill="#71ACDE" d="M80.35,62.1c-2.6-0.9-4.7-1.9-6.4-3c-0.3-0.2-0.4-0.3-0.7-0.4c-0.9-0.5-1.9-0.1-2.1,0.3
			c-0.1,0.1-0.1,0.2-0.3,0.3c-1.9,2.3-8.5,5.2-8.5,5.2c-0.5,0.1-0.9,0.6-0.9,1.1l0,0l0,0v8.1c0,5-4,9-8.9,9s-9-4-9-9v-3.3
			c-1.7-0.6-2.9-2.2-2.9-4.1c0-2.4,2-4.4,4.4-4.4s4.4,2,4.4,4.4c0,1.8-1.2,3.5-2.8,4v3.3c0,3.5,2.7,6.4,6,6.4s6-2.8,6-6.4v-7.8l0,0
			l0,0v-0.1l0,0c0-0.5-0.4-0.9-0.8-1.1c0,0-7-3.5-9-6.1c-0.3-0.3-1.2-0.8-2.1-0.3c-1.8,1-4.2,1.8-7.3,2.9
			c-9.5,3.4-12.2,6.9-12.2,9.3v15.5h65.5V70.3C92.65,67.9,89.95,65.5,80.35,62.1L80.35,62.1z"/>
		<path fill="#71ACDE" d="M44.45,33c0.5,6.4,3,3.7,3.5,6.4c1,5.5,3.2,5.7,3.9,7.6c0.2,0.4,0.3,2.5,0.3,3.2c0,2.3-0.1,3.5-1,4.6
			c-0.2,0.3-0.6,1.1-0.1,1.8c2,2.9,5.7,5.4,9.3,5.4c3.6-0.1,7.4-2.5,9.3-5.4c0.4-0.6,0.1-1.5-0.1-1.8c-0.9-1.1-1-2.3-1-4.6
			c0-0.7,0.1-2.7,0.3-3.2c0.8-1.9,2.8-2.1,3.9-7.6c0.5-2.8,3.1-0.1,3.5-6.4c0-2.5-1.4-3.2-1.4-3.2s0.7-3.8,1-6.7
			c0.4-3.7-2.1-13-15.2-13h-0.6c-13.1,0-15.6,9.3-15.2,13c0.3,2.9,1,6.7,1,6.7S44.45,30.4,44.45,33L44.45,33z"/>
	</g>
</g>
</svg>
