<?xml version="1.0" encoding="utf-8"?>
<!-- Generator: Adobe Illustrator 17.0.0, SVG Export Plug-In . SVG Version: 6.00 Build 0)  -->
<!DOCTYPE svg PUBLIC "-//W3C//DTD SVG 1.1//EN" "http://www.w3.org/Graphics/SVG/1.1/DTD/svg11.dtd">
<svg version="1.1" id="Layer_1" xmlns="http://www.w3.org/2000/svg" xmlns:xlink="http://www.w3.org/1999/xlink" x="0px" y="0px"
	 width="120px" height="96px" viewBox="0 0 120 96" enable-background="new 0 0 120 96" xml:space="preserve">
<g>
	<path fill="#71ACDE" d="M76.3,58.8h-5.6v-5.4c1.3-1.6,2.4-3.3,3.3-5.1c0.3-0.1,0.7-0.2,1.1-0.3c1.6-0.7,3-2.6,3.8-4.9
		c0.9-2.6,0.8-5.4-0.2-7c0.1-2.9,0.1-10.8-5-16.4c-0.8-0.9-1.8-1.7-2.8-2.4C70,12,65.7,8,60.3,8c-5.3,0-10.2,3.9-11.1,9
		c-1.9,1.1-3.5,2.5-4.8,4.2c-2.8,3.8-3.6,9.1-2.5,14.8c-1.4,1.4-1.7,3.9-0.7,7c0.5,1.5,1.4,2.9,2.3,3.8c0.8,0.8,1.7,1.2,2.6,1.4
		c0.9,1.8,2,3.7,3.3,5.3v5.2h-5.7c-8,0-14.2,13.8-14.2,20.7c0,0.8,0.4,1.5,1.1,1.8c10.8,5.1,21,6.7,29.5,6.7c4.5,0,8.5-0.4,11.8-1
		c10.6-1.9,17.2-5.5,17.5-5.7c0.6-0.4,1-1.1,1-1.8C90.5,72.6,84.3,58.8,76.3,58.8L76.3,58.8z M46.2,39.4c0.9-1,3.3-4.1,4.9-7.4
		c3.2,3.3,10,7.2,24.4,7.2c0.1,0.6,0,1.5-0.4,2.6c-0.5,1.5-1.3,2.3-1.7,2.5c-0.4-0.1-0.9-0.1-1.3,0c-0.5,0.2-0.9,0.6-1.2,1.1
		c-2.1,4.8-6.3,10.4-11,10.4c-2.5,0-4.7-1.6-6.7-3.7c0.9,0.2,1.8,0.2,2.5,0.2c0.1,0,0.2,0,0.3,0c0.5,0.6,1.3,1.1,2.2,1.1h3.5
		c1.5,0,2.7-1.3,2.7-2.8v-0.9c0-1.5-1.2-2.8-2.7-2.8h-3.5c-1,0-1.9,0.6-2.4,1.4c-0.8,0-2-0.1-3.2-0.5C49.7,46.7,47.5,43.8,46.2,39.4
		L46.2,39.4z M60.3,12c2.4,0,4.2,1.2,5.5,3c-1.6-0.4-3.7-0.6-5.6-0.6l0,0c-2.2,0-4.2,0.3-6.1,0.7C55.4,13.2,57.9,12,60.3,12L60.3,12
		z M47.5,23.6c2.5-3.4,6.7-5.2,12.7-5.3l0,0c4.3,0,8.1,1.3,10.5,4c3.5,3.9,4,9.9,4,12.9c-10.5-0.1-16.1-2.5-18.9-4.4
		c-2.8-2-3.4-3.9-3.5-4.1c-0.2-1-1.1-1.7-2.1-1.6s-1.8,1-1.8,2c0,1.8-1.4,4.5-2.9,6.7C44.9,29.7,45.6,26.2,47.5,23.6L47.5,23.6z
		 M51.4,62.8c1.1,0,1.8-0.8,1.8-1.9v-3.5c2.2,1.4,4.3,2.3,6.7,2.3c2.5,0,4.9-0.9,7-2.5v3.6c0,1.1,0.9,1.9,2,1.9H71l-11,8.6l-11-8.6
		h2.4V62.8z M71.3,83.1c-8.9,1.6-22.6,2-37.7-4.7c0.6-5.6,5-14.1,9.2-15.3l16,12.5c0.4,0.3,0.8,0.4,1.2,0.4s0.9-0.1,1.2-0.4l16-12.5
		c4.2,1.2,8.6,9.8,9.2,15.4C84.2,79.4,78.8,81.8,71.3,83.1L71.3,83.1z"/>
</g>
</svg>
