<?xml version="1.0" encoding="utf-8"?>
<!-- Generator: Adobe Illustrator 17.0.0, SVG Export Plug-In . SVG Version: 6.00 Build 0)  -->
<!DOCTYPE svg PUBLIC "-//W3C//DTD SVG 1.1//EN" "http://www.w3.org/Graphics/SVG/1.1/DTD/svg11.dtd">
<svg version="1.1" id="Layer_1" xmlns="http://www.w3.org/2000/svg" xmlns:xlink="http://www.w3.org/1999/xlink" x="0px" y="0px"
	 width="197px" height="80px" viewBox="0 0 197 80" style="enable-background:new 0 0 197 80;" xml:space="preserve">
<style type="text/css">
	.st0{fill-rule:evenodd;clip-rule:evenodd;fill:url(#SVGID_1_);}
	.st1{fill-rule:evenodd;clip-rule:evenodd;fill:url(#SVGID_2_);}
	.st2{fill-rule:evenodd;clip-rule:evenodd;fill:url(#SVGID_3_);}
	.st3{fill-rule:evenodd;clip-rule:evenodd;fill:url(#SVGID_4_);}
	.st4{fill-rule:evenodd;clip-rule:evenodd;fill:url(#SVGID_5_);}
</style>
<g>
	<linearGradient id="SVGID_1_" gradientUnits="userSpaceOnUse" x1="67.5919" y1="36.852" x2="196.4862" y2="36.852">
		<stop  offset="0" style="stop-color:#A97C50"/>
		<stop  offset="0.371" style="stop-color:#A97C50"/>
		<stop  offset="0.6989" style="stop-color:#C49A6C"/>
		<stop  offset="1" style="stop-color:#95724F"/>
	</linearGradient>
	<path class="st0" d="M74.2,20h2.6v1.3c-0.1,0.1-0.2,0.1-0.3,0.2c-0.1,0.1-0.3,0.1-0.5,0.2c-0.2,0.1-0.4,0.1-0.6,0.1
		c-0.2,0-0.4,0.1-0.6,0.1c-0.7,0-1.4-0.2-1.9-0.5c-0.5-0.3-1-0.7-1.3-1.3c-0.3-0.6-0.5-1.2-0.5-2c0-0.6,0.1-1.2,0.3-1.7
		c0.2-0.5,0.4-0.9,0.8-1.2c0.3-0.3,0.7-0.5,1.1-0.7c0.4-0.2,0.9-0.2,1.4-0.2c0.3,0,0.6,0,1,0.1c0.3,0.1,0.6,0.2,0.9,0.3
		c0.3,0.1,0.5,0.3,0.7,0.5l1.2-2.3c-0.3-0.3-0.7-0.5-1.1-0.7c-0.4-0.2-0.8-0.3-1.3-0.4c-0.5-0.1-1-0.2-1.6-0.2
		c-0.8,0-1.5,0.1-2.1,0.3c-0.7,0.2-1.2,0.5-1.7,0.9c-0.5,0.4-0.9,0.8-1.3,1.4c-0.4,0.5-0.6,1.1-0.8,1.7c-0.2,0.6-0.3,1.3-0.3,2
		c0,1,0.1,1.8,0.4,2.6c0.3,0.8,0.7,1.5,1.3,2c0.6,0.6,1.3,1,2.1,1.3c0.8,0.3,1.8,0.5,2.8,0.5c0.4,0,0.8,0,1.2-0.1
		c0.4-0.1,0.8-0.2,1.3-0.3c0.4-0.1,0.8-0.3,1.2-0.5c0.4-0.2,0.7-0.5,1-0.7v-5.5h-5.3V20L74.2,20z M81.2,16.8c-0.1,1-0.1,1.9,0,2.7
		c0.1,0.8,0.4,1.5,0.7,2.2c0.3,0.6,0.8,1.2,1.3,1.6c0.5,0.4,1.1,0.8,1.8,1c0.7,0.2,1.4,0.3,2.1,0.3c1,0,1.8-0.1,2.6-0.4
		c0.8-0.3,1.4-0.7,2-1.3c0.6-0.6,1-1.2,1.3-2c0.3-0.8,0.5-1.7,0.5-2.7c0-1-0.2-1.8-0.5-2.6c-0.3-0.8-0.7-1.5-1.3-2
		c-0.6-0.6-1.2-1-2-1.3c-2-0.8-5.2-0.5-6.9,1l1.1,2.1c0.4-0.3,0.9-0.5,1.3-0.7c0.5-0.1,0.9-0.2,1.4-0.2c0.6,0,1.2,0.1,1.7,0.3
		c0.5,0.2,0.9,0.4,1.3,0.8c0.4,0.3,0.6,0.8,0.8,1.3H81.2L81.2,16.8z M87.1,22c-0.4,0-0.8-0.1-1.2-0.2c-0.3-0.1-0.6-0.3-0.9-0.6
		c-0.2-0.2-0.4-0.5-0.6-0.8c-0.1-0.3-0.2-0.6-0.3-0.9h6.4c-0.2,0.6-0.4,1.1-0.7,1.5c-0.3,0.4-0.7,0.6-1.2,0.8
		C88.1,21.9,87.6,22,87.1,22L87.1,22z M106.5,24.4V12.1h-2.6v7.4L98,12.1h-2.3v12.3h2.6V17l5.8,7.4H106.5L106.5,24.4z M118.1,21.1
		c-0.4,0.3-0.9,0.5-1.3,0.7c-0.5,0.1-0.9,0.2-1.4,0.2c-0.6,0-1.1-0.1-1.5-0.3c-0.5-0.2-0.8-0.4-1.2-0.8c-0.3-0.3-0.6-0.7-0.8-1.2
		c-0.2-0.5-0.3-1-0.3-1.5c0-0.6,0.1-1.1,0.3-1.6c0.2-0.5,0.4-0.9,0.7-1.2c0.3-0.3,0.7-0.6,1.1-0.7c0.4-0.2,0.9-0.2,1.3-0.2
		c0.4,0,0.7,0,1,0.1c0.3,0.1,0.6,0.2,0.8,0.3c0.2,0.1,0.5,0.2,0.7,0.4l1.2-2.1c-0.2-0.2-0.6-0.5-0.9-0.7c-0.4-0.2-0.8-0.3-1.3-0.5
		c-0.5-0.1-1-0.2-1.5-0.2c-0.8,0-1.6,0.1-2.3,0.3c-0.7,0.2-1.3,0.5-1.8,0.9c-0.5,0.4-0.9,0.8-1.3,1.4c-0.3,0.5-0.6,1.1-0.8,1.7
		c-0.2,0.6-0.3,1.3-0.3,2c0,1,0.2,1.8,0.5,2.6c0.3,0.8,0.8,1.5,1.3,2c0.6,0.6,1.3,1,2,1.3c0.8,0.3,1.7,0.5,2.6,0.5
		c0.6,0,1.1-0.1,1.6-0.2c0.5-0.1,1-0.3,1.4-0.5c0.4-0.2,0.7-0.5,1-0.7L118.1,21.1L118.1,21.1z M120.4,16.8c-0.1,1-0.1,1.9,0,2.7
		c0.1,0.8,0.4,1.5,0.7,2.2c0.3,0.6,0.8,1.2,1.3,1.6c0.5,0.4,1.1,0.8,1.8,1c0.7,0.2,1.4,0.3,2.1,0.3c1,0,1.8-0.1,2.6-0.4
		c0.8-0.3,1.4-0.7,2-1.3c0.6-0.6,1-1.2,1.3-2c0.3-0.8,0.5-1.7,0.5-2.7c0-1-0.2-1.8-0.5-2.6c-0.3-0.8-0.7-1.5-1.3-2
		c-0.6-0.6-1.2-1-2-1.3c-0.8-0.3-1.6-0.5-2.5-0.5c-0.7,0-1.3,0.1-1.9,0.2c-0.6,0.1-1.1,0.3-1.5,0.5c-0.4,0.2-0.8,0.4-1.1,0.7
		l1.1,2.1c0.4-0.3,0.9-0.5,1.3-0.7c0.5-0.1,0.9-0.2,1.4-0.2c0.6,0,1.2,0.1,1.7,0.3c0.5,0.2,0.9,0.4,1.3,0.8c0.4,0.3,0.6,0.8,0.8,1.3
		H120.4L120.4,16.8z M126.2,22c-0.4,0-0.8-0.1-1.2-0.2c-0.3-0.1-0.6-0.3-0.9-0.6c-0.2-0.2-0.4-0.5-0.6-0.8c-0.1-0.3-0.2-0.6-0.3-0.9
		h6.4c-0.2,0.6-0.4,1.1-0.7,1.5c-0.3,0.4-0.7,0.6-1.2,0.8C127.3,21.9,126.8,22,126.2,22L126.2,22z M69.2,42.9c0.2,0,0.4,0,0.7,0
		c0.3,0,0.6,0,0.9,0c0.3,0,0.7,0,1,0c0.3,0,0.6,0,0.9,0c0.7,0,1.3-0.1,1.9-0.2c0.6-0.2,1.1-0.4,1.5-0.7c0.4-0.3,0.7-0.7,1-1.2
		c0.2-0.5,0.4-1,0.4-1.7c0-0.4-0.1-0.7-0.1-1.1c-0.1-0.3-0.2-0.6-0.4-0.8c-0.2-0.2-0.4-0.4-0.6-0.6c-0.2-0.2-0.4-0.3-0.7-0.4v0
		c0.5-0.3,0.8-0.7,1-1.1c0.2-0.4,0.4-1,0.4-1.6c0-0.4-0.1-0.8-0.2-1.2c-0.2-0.4-0.4-0.7-0.7-1c-0.3-0.3-0.8-0.5-1.3-0.7
		c-0.5-0.2-1.2-0.2-1.9-0.2c-0.3,0-0.7,0-1,0c-0.4,0-0.7,0-1.1,0c-0.3,0-0.7,0-0.9,0c-0.3,0-0.5,0-0.7,0V42.9L69.2,42.9z M73.1,38
		c0.3,0,0.6,0,0.8,0.1c0.2,0.1,0.4,0.2,0.5,0.4c0.1,0.2,0.2,0.4,0.2,0.6c0,0.4-0.1,0.7-0.4,1c-0.3,0.2-0.7,0.3-1.2,0.3
		c-0.2,0-0.3,0-0.4,0c-0.1,0-0.2,0-0.3,0c-0.1,0-0.2,0-0.2,0V38H73.1L73.1,38z M72.9,33.2c0.2,0,0.5,0,0.7,0.1
		c0.2,0.1,0.4,0.2,0.5,0.4c0.1,0.2,0.2,0.4,0.2,0.6c0,0.3-0.1,0.5-0.2,0.7c-0.1,0.2-0.3,0.3-0.5,0.4c-0.2,0.1-0.4,0.1-0.7,0.1H72
		v-2.2c0.1,0,0.2,0,0.3,0c0.1,0,0.2,0,0.3,0C72.6,33.2,72.8,33.2,72.9,33.2L72.9,33.2z M80,43h7.5v-2.6h-4.7v-2.2h4v-2.6h-4v-2.2
		h4.5v-2.6H80V43L80,43z M100.1,30.6h-3l-2.6,4.7l-2.6-4.7h-3.2l4.3,7.3v5h2.8v-5L100.1,30.6L100.1,30.6z M112.4,43V30.6h-2.6v7.4
		l-5.8-7.4h-2.3V43h2.6v-7.4l5.8,7.4H112.4L112.4,43z M114.8,35.4c-0.1,1-0.1,1.9,0,2.7c0.1,0.8,0.4,1.5,0.7,2.2
		c0.3,0.6,0.8,1.2,1.3,1.6c0.5,0.4,1.1,0.8,1.8,1c0.7,0.2,1.4,0.3,2.1,0.3c1,0,1.8-0.1,2.6-0.4c0.8-0.3,1.4-0.7,2-1.3
		c0.6-0.6,1-1.2,1.3-2c0.3-0.8,0.5-1.7,0.5-2.7c0-1-0.2-1.8-0.5-2.6c-0.3-0.8-0.7-1.5-1.3-2c-0.6-0.6-1.2-1-2-1.3
		c-0.8-0.3-1.6-0.5-2.5-0.5c-0.7,0-1.3,0.1-1.9,0.2c-0.6,0.1-1.1,0.3-1.5,0.5c-0.4,0.2-0.8,0.4-1.1,0.7l1.1,2.1
		c0.4-0.3,0.9-0.5,1.3-0.7c0.5-0.1,0.9-0.2,1.4-0.2c0.6,0,1.2,0.1,1.7,0.3c0.5,0.2,0.9,0.4,1.3,0.8c0.4,0.3,0.6,0.8,0.8,1.3H114.8
		L114.8,35.4z M120.6,40.5c-0.4,0-0.8-0.1-1.2-0.2c-0.3-0.1-0.6-0.3-0.9-0.6c-0.2-0.2-0.4-0.5-0.6-0.8c-0.1-0.3-0.2-0.6-0.3-0.9h6.4
		c-0.2,0.6-0.4,1.1-0.7,1.5c-0.3,0.4-0.7,0.6-1.2,0.8C121.7,40.5,121.2,40.5,120.6,40.5L120.6,40.5z M129.3,43h7.8v-2.6h-5v-9.7
		h-2.8V43L129.3,43z M149,30.6h-3.3l-2.4,4l-2.5-4h-3.3l3.9,6l-4.1,6.3h3.3l2.6-4.1l2.6,4.1h3.3l-4.1-6.3L149,30.6L149,30.6z
		 M149.2,43l5.1-12.3h2.5l5.1,12.3h-3l-1-2.6H153l-1,2.6H149.2L149.2,43z M155.4,34.3l-1.4,3.5h2.8L155.4,34.3L155.4,34.3z
		 M163.5,43h7.8v-2.6h-5v-9.7h-2.8V43L163.5,43z M171.8,36.8c0,1,0.2,1.9,0.5,2.6c0.3,0.8,0.8,1.5,1.4,2c0.6,0.6,1.3,1,2.1,1.3
		c0.8,0.3,1.7,0.4,2.6,0.4c0.6,0,1.1-0.1,1.6-0.2c0.5-0.1,1-0.3,1.4-0.5l0.4,0.4h3.3l-1.7-1.9c0.5-0.5,0.9-1.2,1.1-1.9
		c0.3-0.7,0.4-1.5,0.4-2.3c0-1-0.2-1.9-0.5-2.6s-0.8-1.5-1.4-2c-0.6-0.6-1.3-1-2.1-1.3c-0.8-0.3-1.7-0.4-2.6-0.4
		c-0.8,0-1.5,0.1-2.2,0.3c-0.7,0.2-1.3,0.5-1.8,0.9c-0.5,0.4-1,0.8-1.4,1.4c-0.4,0.5-0.7,1.1-0.9,1.7
		C171.9,35.4,171.8,36.1,171.8,36.8L171.8,36.8z M174.8,36.8c0-0.6,0.1-1.1,0.3-1.5c0.2-0.5,0.4-0.8,0.7-1.2
		c0.3-0.3,0.7-0.6,1.1-0.8c0.4-0.2,0.9-0.3,1.4-0.3c0.5,0,1,0.1,1.4,0.3c0.4,0.2,0.8,0.4,1.1,0.8c0.3,0.3,0.6,0.7,0.8,1.2
		c0.2,0.5,0.3,1,0.3,1.5c0,0.4,0,0.7-0.1,1.1c-0.1,0.3-0.2,0.6-0.3,0.9l-1-1.2l-1.8,1.7l1,1.1c-0.2,0.1-0.4,0.1-0.6,0.1
		c-0.2,0-0.4,0-0.6,0c-0.5,0-1-0.1-1.4-0.3c-0.4-0.2-0.8-0.5-1.1-0.8c-0.3-0.3-0.6-0.7-0.8-1.2C174.9,37.8,174.8,37.3,174.8,36.8
		L174.8,36.8z M79.3,49.2H76l-2.4,4l-2.5-4h-3.3l3.9,6l-4.1,6.3h3.3l2.6-4.1l2.6,4.1h3.3l-4.1-6.3L79.3,49.2L79.3,49.2z M80.3,53.9
		c-0.1,1-0.1,1.9,0,2.7c0.1,0.8,0.4,1.5,0.7,2.2c0.3,0.6,0.8,1.2,1.3,1.6c0.5,0.4,1.1,0.8,1.8,1c0.7,0.2,1.4,0.3,2.1,0.3
		c1,0,1.8-0.1,2.6-0.4c0.8-0.3,1.4-0.7,2-1.3c0.6-0.6,1-1.2,1.3-2c0.3-0.8,0.5-1.7,0.5-2.7c0-1-0.2-1.8-0.5-2.6
		c-0.3-0.8-0.7-1.5-1.3-2c-0.6-0.6-1.2-1-2-1.3C88,49.1,87.2,49,86.3,49c-0.7,0-1.3,0.1-1.9,0.2c-0.6,0.1-1.1,0.3-1.5,0.5
		c-0.4,0.2-0.8,0.4-1.1,0.7l1.1,2.1c0.4-0.3,0.9-0.5,1.3-0.7c0.5-0.1,0.9-0.2,1.4-0.2c0.6,0,1.2,0.1,1.7,0.3
		c0.5,0.2,0.9,0.4,1.3,0.8c0.4,0.3,0.6,0.8,0.8,1.3H80.3L80.3,53.9z M86.1,59.1c-0.4,0-0.8-0.1-1.2-0.2c-0.3-0.1-0.6-0.3-0.9-0.6
		c-0.2-0.2-0.4-0.5-0.6-0.8c-0.1-0.3-0.2-0.6-0.3-0.9h6.4c-0.2,0.6-0.4,1.1-0.7,1.5c-0.3,0.4-0.7,0.6-1.2,0.8
		C87.2,59,86.7,59.1,86.1,59.1L86.1,59.1z M99.3,58.1c0,0.3-0.1,0.5-0.3,0.7c-0.2,0.2-0.5,0.3-0.9,0.3c-0.3,0-0.6,0-0.9-0.1
		c-0.3-0.1-0.6-0.2-0.9-0.4c-0.3-0.2-0.6-0.4-0.8-0.7l-1.6,1.9c0.2,0.3,0.4,0.6,0.7,0.9c0.3,0.2,0.6,0.5,1,0.6
		c0.4,0.2,0.8,0.3,1.2,0.4c0.4,0.1,0.8,0.1,1.3,0.1c0.6,0,1.2-0.1,1.7-0.3c0.5-0.2,1-0.4,1.3-0.7c0.4-0.3,0.7-0.7,0.9-1.1
		c0.2-0.4,0.3-0.9,0.3-1.5c0-0.5-0.1-0.9-0.2-1.3c-0.1-0.4-0.3-0.7-0.6-1c-0.2-0.3-0.5-0.5-0.8-0.7c-0.3-0.2-0.6-0.4-0.9-0.5
		c-0.3-0.2-0.6-0.3-0.9-0.4c-0.3-0.1-0.6-0.3-0.8-0.4c-0.2-0.1-0.4-0.3-0.6-0.5c-0.1-0.2-0.2-0.4-0.2-0.7c0-0.3,0.1-0.5,0.3-0.7
		c0.2-0.2,0.5-0.2,0.9-0.2c0.3,0,0.6,0,0.8,0.1c0.2,0.1,0.4,0.2,0.6,0.3c0.2,0.1,0.3,0.3,0.5,0.4l1.5-2.1c-0.4-0.4-0.9-0.7-1.5-1
		c-0.6-0.2-1.3-0.4-2.1-0.4c-0.6,0-1.2,0.1-1.7,0.3c-0.5,0.2-0.9,0.4-1.3,0.8c-0.3,0.3-0.6,0.7-0.8,1.1c-0.2,0.4-0.3,0.9-0.3,1.4
		c0,0.5,0.1,0.9,0.2,1.3c0.1,0.4,0.3,0.7,0.6,1c0.2,0.3,0.5,0.5,0.8,0.7c0.3,0.2,0.6,0.4,0.9,0.6c0.3,0.2,0.6,0.3,0.9,0.5
		c0.3,0.1,0.6,0.3,0.8,0.4c0.2,0.1,0.4,0.3,0.6,0.5C99.2,57.7,99.3,57.9,99.3,58.1L99.3,58.1z M103.2,51.8h3.7v9.7h2.8v-9.7h3.7
		v-2.6h-10.2V51.8L103.2,51.8z M114.4,53.9c-0.1,1-0.1,1.9,0,2.7c0.1,0.8,0.4,1.5,0.7,2.2c0.3,0.6,0.8,1.2,1.3,1.6
		c0.5,0.4,1.1,0.8,1.8,1c0.7,0.2,1.4,0.3,2.1,0.3c1,0,1.8-0.1,2.6-0.4c0.8-0.3,1.4-0.7,2-1.3c0.6-0.6,1-1.2,1.3-2
		c0.3-0.8,0.5-1.7,0.5-2.7c0-1-0.2-1.8-0.5-2.6c-0.3-0.8-0.7-1.5-1.3-2c-0.6-0.6-1.2-1-2-1.3c-0.8-0.3-1.6-0.5-2.5-0.5
		c-0.7,0-1.3,0.1-1.9,0.2c-0.6,0.1-1.1,0.3-1.5,0.5c-0.4,0.2-0.8,0.4-1.1,0.7l1.1,2.1c0.4-0.3,0.9-0.5,1.3-0.7
		c0.5-0.1,0.9-0.2,1.4-0.2c0.6,0,1.2,0.1,1.7,0.3c0.5,0.2,0.9,0.4,1.3,0.8c0.4,0.3,0.6,0.8,0.8,1.3H114.4L114.4,53.9z M120.2,59.1
		c-0.4,0-0.8-0.1-1.2-0.2c-0.3-0.1-0.6-0.3-0.9-0.6c-0.2-0.2-0.4-0.5-0.6-0.8c-0.1-0.3-0.2-0.6-0.3-0.9h6.4
		c-0.2,0.6-0.4,1.1-0.7,1.5c-0.3,0.4-0.7,0.6-1.2,0.8C121.3,59,120.8,59.1,120.2,59.1L120.2,59.1z M139,49.2h-3.3l-2.4,4l-2.5-4
		h-3.3l3.9,6l-4.1,6.3h3.3l2.6-4.1l2.6,4.1h3.3l-4.1-6.3L139,49.2L139,49.2z M139.2,61.5l5.1-12.3h2.5l5.1,12.3h-3l-1-2.6H143
		l-1,2.6H139.2L139.2,61.5z M145.5,52.8l-1.4,3.5h2.8L145.5,52.8L145.5,52.8z M164.2,61.5V49.2h-2.6v7.4l-5.8-7.4h-2.3v12.3h2.6
		v-7.4l5.8,7.4H164.2L164.2,61.5z M165.8,61.5h2.8l1-2.6h4.9l1,2.6h3l-5.1-12.3h-2.5L165.8,61.5L165.8,61.5z M172.1,52.8l1.4,3.5
		h-2.8L172.1,52.8L172.1,52.8z M187,58.1c0,0.8-0.7,1.1-1.6,1.1c-1.2,0-3.1-0.7-3.8-1.5l-1.5,2c0.6,0.9,2.9,2.1,5.1,2.1
		c3,0,5-1.5,5-3.9c0-4.3-6.6-3.2-6.6-5.3c0-0.5,0.6-1.1,1.5-1.1c1.3,0,2.6,0.6,3.3,1.2l1.2-2.2c-0.8-0.7-2.3-1.6-4.7-1.6
		c-2.5,0-4.5,1.3-4.5,3.7C180.4,57.2,187,56.1,187,58.1L187,58.1z M193.4,61.5h3.1V49.3h-3.1V61.5z"/>
	<g>
		<linearGradient id="SVGID_2_" gradientUnits="userSpaceOnUse" x1="155.0564" y1="69.3547" x2="188.9677" y2="69.3547">
			<stop  offset="0" style="stop-color:#A97C50"/>
			<stop  offset="0.371" style="stop-color:#A97C50"/>
			<stop  offset="0.6989" style="stop-color:#C49A6C"/>
			<stop  offset="1" style="stop-color:#95724F"/>
		</linearGradient>
		<path class="st1" d="M185.9,71.8h3.1V71h-2.2v-4.1h-0.9V71.8L185.9,71.8z M182.6,68l0.7,1.8h-1.5L182.6,68L182.6,68z M180.1,71.8
			h0.9l0.5-1.3h2.1l0.5,1.3h0.9l-2.1-5h-0.8L180.1,71.8L180.1,71.8z M176.4,67.7v-0.8h4.1v0.8h-1.6v4.1H178v-4.1H176.4L176.4,67.7z
			 M174.6,71.8h0.9v-5h-0.9V71.8L174.6,71.8z M171.7,67.7c0.3,0,0.5,0.1,0.7,0.2c0.2,0.1,0.2,0.3,0.2,0.6c0,0.2,0,0.3-0.1,0.5
			c-0.1,0.1-0.2,0.2-0.3,0.3c-0.1,0.1-0.3,0.1-0.5,0.1c-0.1,0-0.2,0-0.3,0c-0.1,0-0.2,0-0.3,0v-1.5c0.1,0,0.2,0,0.3,0
			C171.5,67.7,171.6,67.7,171.7,67.7L171.7,67.7z M171.1,71.8V70c0.1,0,0.1,0,0.2,0c0.1,0,0.2,0,0.2,0c0.1,0,0.1,0,0.2,0
			c0.3,0,0.6,0,0.8-0.1c0.2-0.1,0.4-0.2,0.6-0.4c0.2-0.2,0.3-0.3,0.3-0.5c0.1-0.2,0.1-0.4,0.1-0.6c0-0.2,0-0.4-0.1-0.6
			c-0.1-0.2-0.2-0.4-0.3-0.5c-0.1-0.2-0.3-0.3-0.6-0.4c-0.2-0.1-0.6-0.1-0.9-0.1c-0.1,0-0.2,0-0.3,0c-0.1,0-0.2,0-0.3,0
			c-0.1,0-0.2,0-0.3,0c-0.1,0-0.2,0-0.3,0c-0.1,0-0.2,0-0.2,0v5H171.1L171.1,71.8z M168.3,70.5c0,0.1,0,0.2-0.1,0.3
			c-0.1,0.1-0.1,0.2-0.3,0.2c-0.1,0-0.2,0.1-0.4,0.1c-0.1,0-0.3,0-0.4-0.1c-0.1,0-0.3-0.1-0.4-0.2c-0.1-0.1-0.2-0.2-0.3-0.3
			l-0.5,0.6c0.1,0.1,0.2,0.2,0.3,0.3c0.1,0.1,0.2,0.2,0.4,0.2c0.2,0.1,0.3,0.1,0.5,0.2c0.2,0,0.3,0.1,0.5,0.1c0.2,0,0.5,0,0.7-0.1
			c0.2-0.1,0.4-0.2,0.5-0.3c0.2-0.1,0.3-0.3,0.4-0.4c0.1-0.2,0.1-0.4,0.1-0.6c0-0.2,0-0.4-0.1-0.5c-0.1-0.2-0.1-0.3-0.3-0.4
			c-0.1-0.1-0.2-0.2-0.4-0.3c-0.1-0.1-0.3-0.1-0.4-0.2c-0.1-0.1-0.3-0.1-0.4-0.2c-0.1-0.1-0.3-0.1-0.4-0.2c-0.1-0.1-0.2-0.2-0.3-0.2
			c-0.1-0.1-0.1-0.2-0.1-0.3c0-0.1,0-0.2,0.1-0.3c0.1-0.1,0.1-0.1,0.2-0.2c0.1,0,0.2-0.1,0.4-0.1c0.1,0,0.2,0,0.4,0
			c0.1,0,0.2,0.1,0.3,0.1c0.1,0.1,0.2,0.1,0.2,0.2l0.5-0.7c-0.1-0.1-0.2-0.2-0.4-0.3c-0.1-0.1-0.3-0.1-0.5-0.2
			c-0.2,0-0.4-0.1-0.6-0.1c-0.2,0-0.5,0-0.6,0.1c-0.2,0.1-0.4,0.2-0.5,0.3c-0.1,0.1-0.2,0.3-0.3,0.4c-0.1,0.2-0.1,0.3-0.1,0.5
			c0,0.2,0,0.4,0.1,0.5c0.1,0.1,0.1,0.3,0.3,0.4c0.1,0.1,0.2,0.2,0.4,0.3c0.1,0.1,0.3,0.2,0.4,0.2c0.1,0.1,0.3,0.1,0.4,0.2
			c0.1,0.1,0.3,0.1,0.4,0.2c0.1,0.1,0.2,0.1,0.3,0.2C168.2,70.3,168.2,70.4,168.3,70.5L168.3,70.5z M161,69.4c0-0.3,0-0.5,0.1-0.7
			c0.1-0.2,0.2-0.4,0.3-0.6c0.1-0.2,0.3-0.3,0.5-0.4c0.2-0.1,0.4-0.1,0.7-0.1c0.2,0,0.5,0,0.7,0.1c0.2,0.1,0.4,0.2,0.5,0.4
			c0.2,0.2,0.3,0.3,0.4,0.6c0.1,0.2,0.1,0.4,0.1,0.7c0,0.2,0,0.5-0.1,0.7c-0.1,0.2-0.2,0.4-0.3,0.6c-0.1,0.2-0.3,0.3-0.5,0.4
			c-0.2,0.1-0.4,0.1-0.7,0.1c-0.2,0-0.5,0-0.7-0.1c-0.2-0.1-0.4-0.2-0.5-0.4c-0.2-0.2-0.3-0.3-0.4-0.6C161,69.8,161,69.6,161,69.4
			L161,69.4z M160.1,69.4c0,0.4,0.1,0.7,0.2,1.1c0.1,0.3,0.3,0.6,0.5,0.8c0.2,0.2,0.5,0.4,0.8,0.5c0.3,0.1,0.7,0.2,1,0.2
			c0.4,0,0.7-0.1,1-0.2c0.3-0.1,0.6-0.3,0.8-0.5c0.2-0.2,0.4-0.5,0.5-0.8c0.1-0.3,0.2-0.7,0.2-1c0-0.4-0.1-0.7-0.2-1.1
			c-0.1-0.3-0.3-0.6-0.5-0.8c-0.2-0.2-0.5-0.4-0.8-0.5c-0.3-0.1-0.7-0.2-1-0.2c-0.3,0-0.6,0-0.9,0.1c-0.3,0.1-0.5,0.2-0.7,0.4
			c-0.2,0.2-0.4,0.3-0.5,0.6c-0.2,0.2-0.3,0.4-0.3,0.7C160.1,68.8,160.1,69.1,160.1,69.4L160.1,69.4z M158.2,71.8h0.9v-5h-0.9v2
			h-2.3v-2h-0.9v5h0.9v-2.1h2.3V71.8L158.2,71.8z"/>
		<linearGradient id="SVGID_3_" gradientUnits="userSpaceOnUse" x1="93.8541" y1="69.3547" x2="151.3926" y2="69.3547">
			<stop  offset="0" style="stop-color:#A97C50"/>
			<stop  offset="0.371" style="stop-color:#A97C50"/>
			<stop  offset="0.6989" style="stop-color:#C49A6C"/>
			<stop  offset="1" style="stop-color:#95724F"/>
		</linearGradient>
		<path class="st2" d="M148.3,71.8h3.1V71h-2.2v-4.1h-0.9V71.8L148.3,71.8z M145,68l0.7,1.8h-1.5L145,68L145,68z M142.6,71.8h0.9
			l0.5-1.3h2.1l0.5,1.3h0.9l-2.1-5h-0.8L142.6,71.8L142.6,71.8z M141.8,71.8v-5H141v3.5l-2.7-3.5h-0.7v5h0.8v-3.4l2.7,3.4H141.8
			L141.8,71.8z M132.3,69.4c0-0.3,0-0.5,0.1-0.7c0.1-0.2,0.2-0.4,0.3-0.6c0.1-0.2,0.3-0.3,0.5-0.4c0.2-0.1,0.4-0.1,0.7-0.1
			c0.2,0,0.5,0,0.7,0.1c0.2,0.1,0.4,0.2,0.5,0.4c0.2,0.2,0.3,0.3,0.4,0.6c0.1,0.2,0.1,0.4,0.1,0.7c0,0.2,0,0.5-0.1,0.7
			c-0.1,0.2-0.2,0.4-0.3,0.6c-0.1,0.2-0.3,0.3-0.5,0.4c-0.2,0.1-0.4,0.1-0.7,0.1c-0.2,0-0.5,0-0.7-0.1c-0.2-0.1-0.4-0.2-0.5-0.4
			c-0.1-0.2-0.3-0.3-0.4-0.6C132.4,69.8,132.3,69.6,132.3,69.4L132.3,69.4z M131.4,69.4c0,0.4,0.1,0.7,0.2,1.1
			c0.1,0.3,0.3,0.6,0.5,0.8c0.2,0.2,0.5,0.4,0.8,0.5c0.3,0.1,0.7,0.2,1,0.2c0.4,0,0.7-0.1,1-0.2c0.3-0.1,0.6-0.3,0.8-0.5
			c0.2-0.2,0.4-0.5,0.5-0.8c0.1-0.3,0.2-0.7,0.2-1c0-0.4-0.1-0.7-0.2-1.1c-0.1-0.3-0.3-0.6-0.5-0.8c-0.2-0.2-0.5-0.4-0.8-0.5
			c-0.3-0.1-0.7-0.2-1-0.2c-0.3,0-0.6,0-0.9,0.1c-0.3,0.1-0.5,0.2-0.7,0.4c-0.2,0.2-0.4,0.3-0.5,0.6c-0.2,0.2-0.3,0.4-0.3,0.7
			C131.4,68.8,131.4,69.1,131.4,69.4L131.4,69.4z M129.4,71.8h0.9v-5h-0.9V71.8L129.4,71.8z M124.5,67.7h1.6v4.1h0.9v-4.1h1.6v-0.8
			h-4.1V67.7L124.5,67.7z M122.3,68l0.7,1.8h-1.5L122.3,68L122.3,68z M119.8,71.8l2.1-5h0.8l2.1,5h-0.9l-0.5-1.3h-2.1l-0.5,1.3
			H119.8L119.8,71.8z M119.1,71.8v-5h-0.8v3.5l-2.7-3.5h-0.7v5h0.8v-3.4l2.7,3.4H119.1L119.1,71.8z M111.6,67.7c0.2,0,0.4,0,0.6,0.1
			c0.1,0.1,0.2,0.2,0.3,0.3c0.1,0.1,0.1,0.2,0.1,0.4c0,0.1,0,0.2-0.1,0.3c-0.1,0.1-0.1,0.2-0.2,0.2c-0.1,0.1-0.2,0.1-0.3,0.1
			c-0.1,0-0.2,0-0.4,0H111v-1.5c0.1,0,0.2,0,0.3,0C111.4,67.7,111.5,67.7,111.6,67.7L111.6,67.7z M111,71.8V70h0.6l1.4,1.9h1.1
			l-1.6-2c0.1,0,0.2-0.1,0.3-0.2c0.1-0.1,0.2-0.2,0.3-0.3c0.1-0.1,0.2-0.3,0.2-0.4c0.1-0.2,0.1-0.3,0.1-0.6c0-0.2,0-0.4-0.1-0.6
			c-0.1-0.2-0.2-0.3-0.3-0.5c-0.1-0.1-0.3-0.2-0.6-0.3c-0.2-0.1-0.5-0.1-0.9-0.1c0,0-0.1,0-0.1,0c-0.1,0-0.2,0-0.3,0
			c-0.1,0-0.2,0-0.3,0c-0.1,0-0.2,0-0.3,0c-0.1,0-0.2,0-0.3,0c-0.1,0-0.2,0-0.2,0v5H111L111,71.8z M106.1,71.8h2.9V71h-2.1v-1.3h1.8
			v-0.8h-1.8v-1.2h2v-0.8h-2.9V71.8L106.1,71.8z M101.2,67.7h1.6v4.1h0.9v-4.1h1.6v-0.8h-4.1V67.7L101.2,67.7z M100.5,71.8v-5h-0.8
			v3.5l-2.7-3.5h-0.7v5H97v-3.4l2.7,3.4H100.5L100.5,71.8z M93.9,71.8h0.9v-5h-0.9V71.8L93.9,71.8z"/>
		<linearGradient id="SVGID_4_" gradientUnits="userSpaceOnUse" x1="67.6817" y1="69.3547" x2="91.0037" y2="69.3547">
			<stop  offset="0" style="stop-color:#A97C50"/>
			<stop  offset="0.371" style="stop-color:#A97C50"/>
			<stop  offset="0.6989" style="stop-color:#C49A6C"/>
			<stop  offset="1" style="stop-color:#95724F"/>
		</linearGradient>
		<path class="st3" d="M88.5,68l0.7,1.8h-1.5L88.5,68L88.5,68z M86,71.8h0.9l0.5-1.3h2.1l0.5,1.3H91l-2.1-5h-0.8L86,71.8L86,71.8z
			 M85.3,66.9h-0.9v3.6c0,0.1,0,0.2,0,0.3c0,0.1-0.1,0.2-0.1,0.2c-0.1,0-0.2,0.1-0.3,0.1c-0.1,0-0.2,0-0.2,0c-0.1,0-0.1-0.1-0.2-0.1
			l-0.3,0.7c0,0.1,0.1,0.1,0.2,0.1c0.1,0,0.2,0.1,0.3,0.1c0.1,0,0.2,0,0.4,0c0.3,0,0.5,0,0.7-0.1c0.2-0.1,0.3-0.2,0.4-0.4
			c0.1-0.2,0.1-0.4,0.1-0.7V66.9L85.3,66.9z M82.5,71.8v-5h-0.8v3.5L79,66.9h-0.7v5h0.8v-3.4l2.7,3.4H82.5L82.5,71.8z M75,68
			l0.7,1.8h-1.5L75,68L75,68z M72.6,71.8h0.9l0.5-1.3h2.1l0.5,1.3h0.9l-2.1-5h-0.8L72.6,71.8L72.6,71.8z M70.1,70h1.2v0.8
			c0,0-0.1,0.1-0.2,0.1c-0.1,0-0.2,0.1-0.3,0.1c-0.1,0-0.2,0.1-0.3,0.1c-0.1,0-0.2,0-0.3,0c-0.3,0-0.5,0-0.7-0.1
			c-0.2-0.1-0.4-0.2-0.5-0.4c-0.1-0.2-0.3-0.3-0.3-0.6c-0.1-0.2-0.1-0.5-0.1-0.7c0-0.3,0-0.5,0.1-0.7c0.1-0.2,0.2-0.4,0.3-0.5
			c0.1-0.2,0.3-0.3,0.5-0.3c0.2-0.1,0.4-0.1,0.7-0.1c0.1,0,0.3,0,0.4,0c0.1,0,0.3,0.1,0.4,0.1c0.1,0.1,0.2,0.1,0.3,0.2l0.4-0.7
			c-0.1-0.1-0.3-0.2-0.4-0.3c-0.2-0.1-0.3-0.1-0.5-0.2c-0.2,0-0.4-0.1-0.6-0.1c-0.3,0-0.6,0-0.8,0.1c-0.3,0.1-0.5,0.2-0.7,0.4
			c-0.2,0.2-0.4,0.3-0.5,0.6c-0.1,0.2-0.2,0.4-0.3,0.7c-0.1,0.3-0.1,0.5-0.1,0.8c0,0.4,0.1,0.7,0.2,1.1c0.1,0.3,0.3,0.6,0.5,0.8
			c0.2,0.2,0.5,0.4,0.8,0.5c0.3,0.1,0.7,0.2,1.1,0.2c0.2,0,0.3,0,0.5,0c0.2,0,0.3-0.1,0.5-0.1c0.2-0.1,0.3-0.1,0.5-0.2
			c0.1-0.1,0.3-0.2,0.4-0.3v-2.1h-2V70z"/>
	</g>
	<linearGradient id="SVGID_5_" gradientUnits="userSpaceOnUse" x1="0.5138" y1="40" x2="58.6966" y2="40">
		<stop  offset="0" style="stop-color:#A97C50"/>
		<stop  offset="0.371" style="stop-color:#A97C50"/>
		<stop  offset="0.6989" style="stop-color:#C49A6C"/>
		<stop  offset="1" style="stop-color:#95724F"/>
	</linearGradient>
	<path class="st4" d="M32,51.5c0.7-1.8,0.9-4.3,0.6-5.1c0-3.2-0.3-8.2-2-11c-0.5-0.9-1.6-3.7-2-4.7c-0.5-1.2-0.7-2.3-0.8-2.8
		c-1.5-6-2.3-15,0.8-20.7c0.3-0.7,0.5-1.7,1-2.3c0,1.6-0.5,3.4,0.4,4.8c0,3.9,9,19.2,9.8,22.2c0,0,1.1,2.5,1.3,3.6
		c0.5,4.4,0.7,9.4,0,13.7C41,50,40.5,51.2,40,52.5C37.3,52.2,34.7,51.9,32,51.5L32,51.5z M48,20.1c8.5,9.8,8.3,24.2-1.2,33.4
		l9.8,0.5c4.1-12.5,2.6-23.8-7.3-32.9L48,20.1L48,20.1z M2.3,52.9c0.1-0.6,0.2-2.8,0.9-3.1c0.7-0.3,11.1,5.4,12.6,6.2
		C4,47.2,1.7,33.6,10,21.6l1.2-1.4C1.3,29.2-1.8,40,2.3,52.9L2.3,52.9z M38.2,73.3l3.5-2.1l5.3-3.6c3.6-2.6,8.5-5,8.5-9.7
		c-0.5-2-1.1-1.9-2.9-2c-9.1-0.3-17-1-26-2.7c-6.5-1,7,6.4,9.1,6.8c0.8,0.1,0.3,0.6-0.1,0.9C26.4,68,8.7,53.2,5.1,52.7
		c-0.7-0.1-0.7,0.1-0.8,0.6c-0.4,1.4-0.4,2.5,0.6,3.6C9.8,59.6,15,62,20,64.4l-0.1,0.9l-1.2-0.5c-4-2-8-4-12.1-5.9
		c-0.6-0.3-0.8-0.3-0.9,0.4c-0.2,1.1-0.3,1.8,0.8,2.3l12.8,6l0.2,0.3l0,0.4l-0.2,0.2l-0.3-0.1l-9.4-4.5C8.1,63.2,8,64.6,9,65.4
		l0.4,0.3l9,4.4l8,3.9C31.2,75.6,33.6,75.7,38.2,73.3L38.2,73.3z M40.6,52.6c0.7,0.1,1.4,0.1,2.1,0.2c5.1-5,7.9-11.3,7.1-18.2
		c-0.2-3.2-3.4-7.8-5.4-10.5c-2.2-3.1-5.4-6.1-7.5-9.2c-0.5-0.8-1.1-2-2-2.8c0,5.4,3.1,11.2,4.4,13.5c1.6,3,3,6.2,3.6,9.5
		c0.7,4.1,0.1,8.5-0.6,12.7C42.2,49.1,41.4,51,40.6,52.6L40.6,52.6z M27.7,58.6c-1-0.6-1.9-1.2-2.8-1.9c-1.4-1-3-2.5-2.2-4.5
		c0.8-1.8,2.7-1.8,4.4-1.5c0.4,0.1,0.9,0.2,1.3,0.2c0.1-3,0.9-6.1,1.3-9.1c0.3-2,0.3-4.2,0-6.2c-0.9-3.3-1.9-3.7-2.8-7.3
		C26.1,23.6,24.7,18,24.7,13c0.3-2,0.2-1.1-1,0.2c-5.3,5.2-6.8,16.1-6.3,22.7c0.3,4,2,7.9,4.3,11.3c0.5,1.2,0.6,1.6,0.6,2.8
		c0,1.1-1.8,0.9-1.8,0.5c-1.3,0-3.7-6.2-3.7-7.8c-1.6-5.9-1.7-11.9-1.2-17.9c-5,6.5-9.3,18.8-2.2,25.4c-1.2,0-0.7-7.3-0.6-7.7
		c0,1,2.3,7.4,2.4,7.9c0.2,1.5,2.3,4.5,3.6,5.6C21.3,58.6,24.5,59.7,27.7,58.6z"/>
</g>
</svg>
