<svg width="119" height="48" xmlns="http://www.w3.org/2000/svg">
 <defs>
  <style>@import url(https://fonts.googleapis.com/css?family=Rubik:300,300italic,400,400italic,500,500italic,700,700italic,900,900italic);</style>
  <linearGradient y2="-0.158846" x2="0.830707" y1="1.171573" x1="0.158925" id="SVGID_1_">
   <stop stop-color="#A87C4F" offset="0"/>
   <stop stop-color="#A87C4F" offset="0.371"/>
   <stop stop-color="#C3996B" offset="0.6989"/>
   <stop stop-color="#94724F" offset="1"/>
  </linearGradient>
  <linearGradient y2="0.24574" x2="1.442074" y1="0.755333" x1="-0.040324" id="SVGID_2_">
   <stop stop-color="#A87C4F" offset="0"/>
   <stop stop-color="#A87C4F" offset="0.371"/>
   <stop stop-color="#C3996B" offset="0.6989"/>
   <stop stop-color="#94724F" offset="1"/>
  </linearGradient>
  <linearGradient y2="0.186539" x2="0.966402" y1="0.816263" x1="0.033608" id="SVGID_3_">
   <stop stop-color="#A87C4F" offset="0"/>
   <stop stop-color="#A87C4F" offset="0.371"/>
   <stop stop-color="#C3996B" offset="0.6989"/>
   <stop stop-color="#94724F" offset="1"/>
  </linearGradient>
  <linearGradient y2="0.22794" x2="1.053971" y1="0.954161" x1="-0.070721" id="SVGID_4_">
   <stop stop-color="#A87C4F" offset="0"/>
   <stop stop-color="#A87C4F" offset="0.371"/>
   <stop stop-color="#C3996B" offset="0.6989"/>
   <stop stop-color="#94724F" offset="1"/>
  </linearGradient>
  <linearGradient y2="0.22794" x2="1.053989" y1="0.954161" x1="-0.070701" id="SVGID_5_">
   <stop stop-color="#A87C4F" offset="0"/>
   <stop stop-color="#A87C4F" offset="0.371"/>
   <stop stop-color="#C3996B" offset="0.6989"/>
   <stop stop-color="#94724F" offset="1"/>
  </linearGradient>
  <linearGradient y2="0.246254" x2="1.038861" y1="0.754803" x1="-0.440516" id="SVGID_6_">
   <stop stop-color="#A87C4F" offset="0"/>
   <stop stop-color="#A87C4F" offset="0.371"/>
   <stop stop-color="#C3996B" offset="0.6989"/>
   <stop stop-color="#94724F" offset="1"/>
  </linearGradient>
  <linearGradient y2="-0.088803" x2="0.75525" y1="1.314764" x1="0.241255" id="SVGID_7_">
   <stop stop-color="#A87C4F" offset="0"/>
   <stop stop-color="#A87C4F" offset="0.371"/>
   <stop stop-color="#C3996B" offset="0.6989"/>
   <stop stop-color="#94724F" offset="1"/>
  </linearGradient>
 </defs>
 <g>
  <title>background</title>
  <rect fill="none" id="canvas_background" height="50" width="121" y="-1" x="-1"/>
 </g>
 <g>
  <title>Layer 1</title>
  <rect stroke="null" stroke-width="0" fill=" white" height="47.000009" width="126.000065" y="2.000001" x="-0.999974" id="ee-background"/>
  <g id="svg_1" transform="matrix(0.8333568123830596,0,0,0.7846457203683513,60.17312144662672,321.0960682238553) ">
   <g id="svg_2" transform="matrix(0.9791807233903301,0,0,0.9791807233903301,2.1168104167436934,1.2663533235072566) ">
    <g id="svg_3">
     <path id="svg_4" d="m52.971841,-365.327865c1.842,0 3.582,-0.307 5.22,-0.819c1.638,-0.512 2.967,-1.331 4.196,-2.354c1.228,-1.023 2.15,-2.251 2.763,-3.786c0.716,-1.432 1.023,-3.173 1.023,-5.015c0,-1.638 -0.307,-3.07 -0.921,-4.401c-0.615,-1.331 -1.432,-2.456 -2.558,-3.377c-1.126,-0.922 -2.558,-1.535 -4.196,-1.842l0,-0.204c2.047,-0.921 3.582,-2.15 4.605,-3.786c1.023,-1.638 1.535,-3.582 1.535,-5.833c0,-2.15 -0.512,-3.992 -1.432,-5.527c-0.921,-1.535 -2.354,-2.661 -3.992,-3.479c-1.739,-0.819 -3.786,-1.228 -6.039,-1.228c-2.763,0 -5.22,0.512 -7.266,1.638c-2.047,1.023 -3.582,2.661 -4.708,4.708l3.685,4.708c1.023,-1.432 2.15,-2.558 3.377,-3.275s2.661,-1.023 4.298,-1.023c1.126,0 2.15,0.204 2.866,0.615c0.716,0.41 1.331,1.023 1.739,1.739c0.409,0.716 0.512,1.535 0.512,2.558c0,1.126 -0.307,2.15 -0.921,2.967c-0.613,0.818 -1.331,1.432 -2.251,1.944c-0.921,0.409 -1.944,0.615 -3.07,0.615l-2.558,0l0,6.652l2.866,0c1.535,0 2.866,0.204 3.992,0.615c1.126,0.409 1.944,1.126 2.558,1.944c0.615,0.818 0.921,1.842 0.921,3.07c0,1.023 -0.204,1.944 -0.716,2.763c-0.512,0.819 -1.228,1.535 -2.15,2.047c-0.921,0.512 -2.15,0.716 -3.582,0.819c-1.126,0 -2.251,-0.204 -3.377,-0.615c-1.023,-0.409 -2.047,-1.023 -2.967,-1.739s-1.638,-1.638 -2.354,-2.661l-3.786,4.81c0.716,1.432 1.638,2.558 2.866,3.582c1.228,1.023 2.661,1.842 4.298,2.354c1.635,0.509 3.477,0.816 5.524,0.816l0,0zm-33.466,-20.775c0,-4.81 0.512,-8.494 1.535,-10.848c1.023,-2.354 2.661,-3.582 4.912,-3.582c1.535,0 2.763,0.512 3.685,1.535c0.922,1.023 1.638,2.558 2.047,4.708c0.409,2.15 0.615,4.81 0.615,8.187c0,3.275 -0.204,6.039 -0.615,8.187c-0.409,2.15 -1.126,3.685 -2.047,4.708s-2.15,1.535 -3.685,1.535c-2.15,0 -3.786,-1.126 -4.912,-3.582c-1.126,-2.456 -1.535,-5.936 -1.535,-10.848l0,0zm-7.062,0c0,3.07 0.307,5.936 0.819,8.391c0.512,2.558 1.432,4.708 2.558,6.55c1.126,1.842 2.558,3.173 4.298,4.196c1.739,1.023 3.685,1.432 6.039,1.432s4.298,-0.512 5.936,-1.432c1.638,-1.023 3.07,-2.354 4.196,-4.196c1.126,-1.842 1.944,-3.992 2.456,-6.55c0.512,-2.558 0.819,-5.321 0.819,-8.391s-0.307,-5.936 -0.819,-8.391c-0.512,-2.558 -1.432,-4.708 -2.456,-6.55c-1.126,-1.842 -2.456,-3.173 -4.196,-4.196c-1.638,-1.023 -3.685,-1.432 -5.936,-1.432c-2.354,0 -4.298,0.512 -6.039,1.432c-1.739,1.023 -3.07,2.354 -4.196,4.196c-1.126,1.842 -1.944,3.992 -2.456,6.55c-0.818,2.456 -1.023,5.218 -1.023,8.391l0,0zm-15.965,20.775c1.842,0 3.582,-0.307 5.22,-0.819c1.638,-0.512 2.967,-1.331 4.196,-2.354c1.228,-1.023 2.15,-2.251 2.763,-3.786c0.716,-1.432 1.023,-3.173 1.023,-5.015c0,-1.638 -0.307,-3.07 -0.921,-4.401c-0.615,-1.331 -1.432,-2.456 -2.661,-3.377c-1.126,-0.921 -2.558,-1.535 -4.196,-1.842l0,-0.204c2.047,-0.921 3.582,-2.15 4.605,-3.786c1.023,-1.638 1.535,-3.582 1.535,-5.833c0,-2.15 -0.512,-3.992 -1.432,-5.527c-0.921,-1.535 -2.354,-2.661 -3.992,-3.479c-1.739,-0.819 -3.786,-1.228 -6.039,-1.228c-2.763,0 -5.22,0.512 -7.267,1.638s-3.582,2.661 -4.708,4.708l3.685,4.708c1.023,-1.432 2.15,-2.558 3.377,-3.275s2.661,-1.023 4.298,-1.023c1.126,0 2.15,0.204 2.866,0.615c0.716,0.409 1.331,1.023 1.739,1.739c0.409,0.716 0.512,1.535 0.512,2.558c0,1.126 -0.307,2.15 -0.921,2.967c-0.615,0.819 -1.331,1.432 -2.251,1.944c-0.921,0.409 -1.944,0.615 -3.07,0.615l-2.558,0l0,6.652l2.866,0c1.535,0 2.866,0.204 3.992,0.615c1.126,0.41 1.944,1.126 2.558,1.944c0.615,0.819 0.921,1.842 0.921,3.07c0,1.023 -0.204,1.944 -0.716,2.763c-0.512,0.819 -1.228,1.535 -2.15,2.047c-1.023,0.512 -2.15,0.716 -3.582,0.819c-1.228,0 -2.251,-0.204 -3.377,-0.615c-1.023,-0.409 -2.047,-1.023 -2.967,-1.739s-1.638,-1.638 -2.354,-2.661l-3.786,4.81c0.716,1.432 1.638,2.558 2.866,3.582c1.228,1.023 2.661,1.842 4.298,2.354c1.739,0.509 3.581,0.816 5.628,0.816l0,0z" fill="url(#SVGID_1_)"/>
    </g>
    <g id="svg_5">
     <path id="svg_6" d="m-66.359159,-365.327865c-3.479,-2.967 -4.605,-6.448 -4.605,-9.825s1.126,-6.652 4.605,-9.825l2.15,1.842c-2.15,2.251 -3.377,4.605 -3.377,7.983s1.638,6.243 3.377,7.983l-2.15,1.842z" fill="url(#SVGID_2_)"/>
     <path id="svg_7" d="m-57.967159,-383.339865c3.685,0 5.527,3.173 5.527,8.187s-1.739,8.187 -5.527,8.187c-3.788,0 -5.527,-3.173 -5.527,-8.187c0.001,-5.015 1.844,-8.187 5.527,-8.187zm0,13.1c1.331,0 1.842,-1.228 1.842,-5.015c0,-3.788 -0.615,-5.015 -1.842,-5.015c-1.331,0 -1.842,1.331 -1.842,5.015c0,3.787 0.717,5.015 1.842,5.015z" fill="url(#SVGID_3_)"/>
     <path id="svg_8" d="m-51.109159,-369.830865c2.558,-2.558 6.14,-5.629 6.14,-8.391c0,-1.126 -0.512,-1.535 -1.432,-1.535c-1.023,0 -1.432,0.716 -1.739,1.739l-2.866,-1.331c0.512,-2.251 2.251,-3.786 5.015,-3.786c3.07,0 4.708,2.047 4.708,4.298c0,4.504 -4.196,7.778 -5.321,8.699l5.936,0l0,3.173l-10.439,0l0,-2.866l-0.002,0z" fill="url(#SVGID_4_)"/>
     <path id="svg_9" d="m-39.136159,-369.830865c2.558,-2.558 6.14,-5.629 6.14,-8.391c0,-1.126 -0.512,-1.535 -1.432,-1.535c-1.023,0 -1.432,0.716 -1.739,1.739l-2.866,-1.331c0.512,-2.251 2.251,-3.786 5.015,-3.786c3.07,0 4.708,2.047 4.708,4.298c0,4.504 -4.196,7.778 -5.321,8.699l5.936,0l0,3.173l-10.439,0l0,-2.866l-0.002,0z" fill="url(#SVGID_5_)"/>
     <path id="svg_10" d="m-27.878159,-367.169865c1.739,-1.739 3.377,-4.605 3.377,-7.983s-1.126,-5.731 -3.377,-7.983l2.15,-1.842c3.48,3.173 4.605,6.448 4.605,9.825s-1.126,6.856 -4.605,9.825l-2.15,-1.842z" fill="url(#SVGID_6_)"/>
    </g>
    <path id="svg_11" d="m-19.998159,-396.438865c-6.55,-6.345 -15.761,-10.234 -25.586,-10.234s-19.035,3.992 -25.586,10.234c-0.409,0.409 -0.615,0.921 -0.615,1.535c0,0.615 0.204,1.126 0.615,1.535l5.424,5.424c0.409,0.409 0.921,0.615 1.535,0.615s1.126,-0.204 1.535,-0.615c1.739,-1.535 3.685,-3.07 5.936,-4.196c0.615,-0.409 1.331,-1.126 1.331,-1.944l0,-6.755c3.07,-1.126 6.55,-1.535 10.029,-1.535s6.959,0.615 10.029,1.535l0,6.755c0,0.921 0.409,1.535 1.331,1.944c2.15,1.126 4.196,2.456 5.936,4.196c0.409,0.409 0.921,0.615 1.535,0.615c0.615,0 1.126,-0.204 1.535,-0.615l5.424,-5.424c0.409,-0.409 0.615,-0.819 0.615,-1.535c0.103,-0.718 -0.614,-1.126 -1.023,-1.535l0,0z" fill="url(#SVGID_7_)"/>
   </g>
  </g>
 </g>
</svg>