<?xml version="1.0" encoding="utf-8"?>
<!-- Generator: Adobe Illustrator 17.0.0, SVG Export Plug-In . SVG Version: 6.00 Build 0)  -->
<!DOCTYPE svg PUBLIC "-//W3C//DTD SVG 1.1//EN" "http://www.w3.org/Graphics/SVG/1.1/DTD/svg11.dtd">
<svg version="1.1" id="Layer_1" xmlns="http://www.w3.org/2000/svg" xmlns:xlink="http://www.w3.org/1999/xlink" x="0px" y="0px"
	 width="48.917px" height="47.5px" viewBox="0 4.833 48.917 47.5" enable-background="new 0 4.833 48.917 47.5"
	 xml:space="preserve">
<g>
	<path fill="#ED1C24" d="M47.523,26.645c0-11.757-9.726-21.323-21.682-21.323c-6.063,0-11.798,2.476-15.899,6.827
		c-0.719-0.746-2.465-1.612-4.388-0.184l-2.485,1.973c-1.146,0.91-1.823,2.282-2.013,4.079c-0.545,5.132,3.046,13.242,9.148,20.662
		c6.476,7.875,14.324,13.166,19.527,13.166h0c1.413,0,2.606-0.378,3.545-1.124l2.486-1.973c0.681-0.475,1.784-1.979,1.05-3.708
		C43.444,41.213,47.523,34.256,47.523,26.645L47.523,26.645z M34.555,47.23l-2.485,1.973c-0.588,0.467-1.376,0.704-2.341,0.704
		c-4.582,0-11.997-5.123-18.029-12.459C6,30.517,2.496,22.791,2.982,18.221c0.134-1.261,0.568-2.191,1.291-2.765l2.485-1.973
		c0.844-0.61,1.569-0.247,1.849,0.087l4.742,5.767c0.586,0.8,0.004,1.51-0.297,1.749c-1.355,1.076-2.18,2.677-2.387,4.631
		c-0.331,3.115,0.968,6.793,3.472,9.837c2.759,3.356,6.574,5.44,9.955,5.44c1.599,0,3.04-0.473,4.165-1.367
		c0.57-0.452,1.443-0.408,1.851,0.087l4.743,5.766C35.484,46.435,34.701,47.083,34.555,47.23L34.555,47.23z M35.69,43.447
		l-4.083-4.965c-0.715-0.788-2.413-1.906-4.553-0.374c-0.821,0.588-1.787,0.946-2.96,0.946c-2.816,0-6.057-1.814-8.458-4.733
		c-2.181-2.652-3.318-5.793-3.041-8.402c0.151-1.425,0.739-2.557,1.664-3.317c0.847-0.695,2.092-2.571,0.589-4.499l-3.66-4.45
		c3.745-4.072,9.044-6.394,14.652-6.394c0.489,0,0.973,0.019,1.452,0.053v3.049h1.938V7.548c8.577,1.464,15.272,8.38,16.233,16.966
		h-3.053v1.938h3.171c0,0.064,0.002,0.128,0.002,0.192C45.584,33.617,41.812,39.986,35.69,43.447L35.69,43.447z M35.69,43.447"/>
	<path fill="#ED1C24" d="M21.527,29.675l1.016-0.921c2.674-2.532,4.374-4.393,4.374-6.695c0-1.785-1.153-3.626-3.885-3.626
		c-1.464,0-2.713,0.537-3.592,1.266l0.547,1.189c0.585-0.479,1.541-1.055,2.694-1.055c1.893,0,2.518,1.171,2.518,2.437
		c-0.019,1.88-1.484,3.492-4.725,6.523l-1.347,1.285v1.036h8.102v-1.4h-5.701V29.675z M21.527,29.675"/>
	<path fill="#ED1C24" d="M36.073,18.644h-1.855l-5.661,7.961v1.112h5.895v3.396h1.62v-3.396h1.777v-1.324h-1.777L36.073,18.644
		L36.073,18.644z M34.452,22.232v4.163h-4.159v-0.038l3.105-4.24c0.351-0.575,0.663-1.112,1.055-1.841h0.058
		C34.472,20.927,34.452,21.579,34.452,22.232L34.452,22.232z M34.452,22.232"/>
</g>
</svg>
