<?xml version="1.0" encoding="utf-8"?>
<!-- Generator: Adobe Illustrator 17.0.0, SVG Export Plug-In . SVG Version: 6.00 Build 0)  -->
<!DOCTYPE svg PUBLIC "-//W3C//DTD SVG 1.1//EN" "http://www.w3.org/Graphics/SVG/1.1/DTD/svg11.dtd">
<svg version="1.1" id="Layer_1" xmlns="http://www.w3.org/2000/svg" xmlns:xlink="http://www.w3.org/1999/xlink" x="0px" y="0px"
	 width="213.5px" height="82px" viewBox="0 0 213.5 82" enable-background="new 0 0 213.5 82" xml:space="preserve">
<g>
	<g>
		<g>
			<path fill="#64C0AF" d="M79.344,18.917c0-4.398,3.426-8,8.11-8c2.785,0,4.464,0.751,6.077,2.122l-2.144,2.586
				c-1.193-0.995-2.254-1.569-4.044-1.569c-2.475,0-4.442,2.188-4.442,4.862c0,2.829,1.945,4.906,4.685,4.906
				c1.237,0,2.343-0.309,3.204-0.928v-2.21h-3.425v-2.939h6.718v6.718c-1.591,1.348-3.779,2.453-6.608,2.453
				C82.659,26.917,79.344,23.536,79.344,18.917z"/>
			<path fill="#64C0AF" d="M108.05,20.751c0,3.381-2.409,6.166-5.856,6.166c-3.956,0-5.768-3.072-5.768-6.431
				c0-0.265,0.022-0.574,0.044-0.884h8.243c-0.332-1.525-1.392-2.321-2.895-2.321c-1.127,0-1.945,0.354-2.873,1.216l-1.923-1.702
				c1.105-1.37,2.696-2.21,4.84-2.21C105.419,14.586,108.05,17.083,108.05,20.751z M99.696,21.701
				c0.199,1.503,1.083,2.519,2.497,2.519c1.392,0,2.298-0.995,2.563-2.519H99.696z"/>
			<path fill="#64C0AF" d="M110.545,14.807h3.359v1.68c0.774-0.995,1.768-1.901,3.47-1.901c2.541,0,4.022,1.68,4.022,4.398v7.668
				h-3.359v-6.608c0-1.591-0.751-2.409-2.033-2.409c-1.282,0-2.1,0.818-2.1,2.409v6.608h-3.359V14.807z"/>
			<path fill="#64C0AF" d="M123.737,20.751c0-3.381,2.586-6.166,6.21-6.166c2.232,0,3.602,0.84,4.707,2.077l-1.967,1.989
				c-0.729-0.685-1.437-1.171-2.762-1.171c-1.68,0-2.873,1.48-2.873,3.27c0,1.812,1.171,3.271,3.005,3.271
				c1.127,0,1.901-0.486,2.718-1.259l1.967,1.989c-1.149,1.26-2.475,2.166-4.84,2.166C126.345,26.917,123.737,24.177,123.737,20.751
				z"/>
			<path fill="#64C0AF" d="M147.648,20.751c0,3.381-2.409,6.166-5.856,6.166c-3.956,0-5.768-3.072-5.768-6.431
				c0-0.265,0.022-0.574,0.044-0.884h8.243c-0.332-1.525-1.392-2.321-2.895-2.321c-1.127,0-1.945,0.354-2.873,1.216l-1.923-1.702
				c1.105-1.37,2.696-2.21,4.84-2.21C145.018,14.586,147.648,17.083,147.648,20.751z M139.294,21.701
				c0.199,1.503,1.083,2.519,2.497,2.519c1.392,0,2.298-0.995,2.563-2.519H139.294z"/>
		</g>
		<g>
			<path fill="#64C0AF" d="M80.029,33.597h7.182c1.768,0,3.16,0.486,4.044,1.37c0.707,0.707,1.061,1.569,1.061,2.674
				c0,1.746-0.928,2.718-2.033,3.337c1.79,0.685,2.895,1.723,2.895,3.845c0,2.829-2.298,4.243-5.79,4.243h-7.359V33.597z
				 M86.482,39.851c1.503,0,2.453-0.486,2.453-1.68c0-1.016-0.795-1.591-2.232-1.591h-3.359v3.27H86.482z M87.388,46.083
				c1.503,0,2.409-0.53,2.409-1.724c0-1.039-0.773-1.68-2.519-1.68h-3.934v3.403H87.388z"/>
			<path fill="#64C0AF" d="M95.055,43.166c0-3.381,2.409-6.166,5.856-6.166c3.956,0,5.768,3.072,5.768,6.43
				c0,0.265-0.022,0.575-0.044,0.884h-8.243c0.332,1.525,1.392,2.32,2.895,2.32c1.127,0,1.945-0.353,2.873-1.215l1.923,1.702
				c-1.105,1.37-2.696,2.21-4.84,2.21C97.685,49.331,95.055,46.834,95.055,43.166z M103.408,42.215
				c-0.199-1.502-1.083-2.519-2.497-2.519c-1.392,0-2.298,0.995-2.563,2.519H103.408z"/>
			<path fill="#64C0AF" d="M108.468,51.85l1.127-2.431c0.442,0.265,0.995,0.464,1.437,0.464c0.574,0,0.884-0.177,1.171-0.773
				l-4.641-11.889h3.558l2.696,8.066l2.586-8.066h3.492l-4.553,12.132c-0.906,2.409-1.878,3.315-3.889,3.315
				C110.236,52.668,109.33,52.359,108.468,51.85z"/>
			<path fill="#64C0AF" d="M121.881,37.221h3.359v1.68c0.774-0.995,1.768-1.901,3.47-1.901c2.541,0,4.022,1.68,4.022,4.398v7.668
				h-3.359v-6.608c0-1.591-0.751-2.408-2.033-2.408c-1.282,0-2.1,0.818-2.1,2.408v6.608h-3.359V37.221z"/>
			<path fill="#64C0AF" d="M146.697,43.166c0,3.381-2.409,6.166-5.856,6.166c-3.956,0-5.768-3.072-5.768-6.43
				c0-0.265,0.022-0.575,0.044-0.884h8.243c-0.332-1.525-1.392-2.32-2.895-2.32c-1.127,0-1.945,0.353-2.873,1.215l-1.923-1.702
				c1.105-1.37,2.696-2.21,4.84-2.21C144.067,37,146.697,39.498,146.697,43.166z M138.344,44.116
				c0.199,1.502,1.083,2.519,2.497,2.519c1.392,0,2.298-0.995,2.563-2.519H138.344z"/>
			<path fill="#64C0AF" d="M149.348,32.934h3.359v16.132h-3.359V32.934z"/>
			<path fill="#64C0AF" d="M159.027,43.055l-4-5.834h3.602l2.21,3.447l2.232-3.447h3.514l-4,5.767l4.177,6.077h-3.602l-2.387-3.691
				l-2.387,3.691h-3.514L159.027,43.055z"/>
			<path fill="#64C0AF" d="M167.733,45.619c0-2.586,1.967-3.779,4.773-3.779c1.193,0,2.055,0.199,2.895,0.486v-0.199
				c0-1.392-0.862-2.166-2.541-2.166c-1.282,0-2.188,0.243-3.271,0.641l-0.84-2.564c1.304-0.575,2.586-0.95,4.597-0.95
				c1.834,0,3.16,0.486,4,1.326c0.884,0.884,1.282,2.188,1.282,3.779v6.873h-3.249v-1.282c-0.818,0.906-1.945,1.503-3.58,1.503
				C169.567,49.287,167.733,48.005,167.733,45.619z M175.446,44.889v-0.597c-0.574-0.265-1.326-0.442-2.144-0.442
				c-1.436,0-2.32,0.575-2.32,1.679c0,0.906,0.751,1.437,1.834,1.437C174.385,46.967,175.446,46.105,175.446,44.889z"/>
			<path fill="#64C0AF" d="M181.676,32.934h3.359v16.132h-3.359V32.934z"/>
			<path fill="#64C0AF" d="M196.747,47.364c-0.818,1.105-1.945,1.923-3.69,1.923c-2.763,0-5.392-2.166-5.392-6.166
				c0-3.955,2.586-6.121,5.392-6.121c1.79,0,2.895,0.818,3.69,1.768v-1.547h3.359v15.381h-3.359V47.364z M196.792,43.121
				c0-1.967-1.304-3.27-2.873-3.27c-1.569,0-2.895,1.282-2.895,3.315c0,1.967,1.326,3.271,2.895,3.271
				C195.488,46.436,196.792,45.132,196.792,43.121z"/>
		</g>
		<g>
			<path fill="#64C0AF" d="M84.25,64.62l-5.171-7.602h3.978l3.249,5.017l3.271-5.017h3.867l-5.171,7.558l5.392,7.911h-3.978
				l-3.47-5.304l-3.492,5.304h-3.867L84.25,64.62z"/>
			<path fill="#64C0AF" d="M105.906,66.587c0,3.381-2.409,6.166-5.856,6.166c-3.956,0-5.768-3.072-5.768-6.431
				c0-0.265,0.022-0.575,0.044-0.884h8.243c-0.331-1.525-1.392-2.32-2.895-2.32c-1.127,0-1.945,0.353-2.873,1.215l-1.923-1.702
				c1.105-1.37,2.696-2.21,4.84-2.21C103.276,60.421,105.906,62.919,105.906,66.587z M97.552,67.537
				c0.199,1.503,1.083,2.519,2.497,2.519c1.392,0,2.298-0.994,2.564-2.519H97.552z"/>
			<path fill="#64C0AF" d="M107.474,70.918l1.436-2.21c1.282,0.928,2.63,1.414,3.735,1.414c0.972,0,1.414-0.354,1.414-0.928
				c0-0.729-1.149-0.972-2.453-1.37c-1.657-0.486-3.536-1.26-3.536-3.602c0-2.409,1.945-3.757,4.331-3.757
				c1.503,0,3.138,0.508,4.42,1.37l-1.282,2.32c-1.171-0.685-2.342-1.105-3.204-1.105c-0.818,0-1.238,0.354-1.238,0.862
				c0,0.663,1.127,0.972,2.409,1.414c1.657,0.552,3.58,1.348,3.58,3.558c0,2.63-1.967,3.823-4.53,3.823
				C110.899,72.708,109.043,72.156,107.474,70.918z"/>
			<path fill="#64C0AF" d="M119.827,69.128v-5.613h-1.414v-2.873h1.414v-3.028h3.359v3.028h2.784v2.873h-2.784v5.061
				c0,0.774,0.331,1.149,1.083,1.149c0.619,0,1.171-0.155,1.658-0.42v2.696c-0.707,0.42-1.525,0.685-2.652,0.685
				C121.219,72.686,119.827,71.869,119.827,69.128z"/>
			<path fill="#64C0AF" d="M139.163,66.587c0,3.381-2.409,6.166-5.856,6.166c-3.956,0-5.768-3.072-5.768-6.431
				c0-0.265,0.022-0.575,0.044-0.884h8.243c-0.332-1.525-1.392-2.32-2.895-2.32c-1.127,0-1.945,0.353-2.873,1.215l-1.923-1.702
				c1.105-1.37,2.696-2.21,4.84-2.21C136.533,60.421,139.163,62.919,139.163,66.587z M130.809,67.537
				c0.199,1.503,1.083,2.519,2.497,2.519c1.392,0,2.298-0.994,2.563-2.519H130.809z"/>
			<path fill="#64C0AF" d="M144.156,66.476l-4-5.834h3.602l2.21,3.447l2.232-3.447h3.514l-4,5.768l4.177,6.077h-3.602l-2.387-3.691
				l-2.387,3.691h-3.514L144.156,66.476z"/>
			<path fill="#64C0AF" d="M152.863,69.04c0-2.586,1.967-3.779,4.773-3.779c1.193,0,2.055,0.199,2.895,0.486v-0.199
				c0-1.392-0.862-2.166-2.541-2.166c-1.282,0-2.188,0.243-3.271,0.641l-0.84-2.563c1.304-0.575,2.586-0.95,4.597-0.95
				c1.834,0,3.16,0.486,4,1.326c0.884,0.884,1.282,2.188,1.282,3.779v6.873h-3.249v-1.282c-0.818,0.906-1.945,1.503-3.58,1.503
				C154.697,72.708,152.863,71.427,152.863,69.04z M160.575,68.311v-0.597c-0.574-0.265-1.326-0.442-2.143-0.442
				c-1.437,0-2.321,0.575-2.321,1.68c0,0.906,0.751,1.436,1.834,1.436C159.514,70.388,160.575,69.526,160.575,68.311z"/>
			<path fill="#64C0AF" d="M166.651,60.642h3.359v1.679c0.774-0.994,1.768-1.9,3.47-1.9c2.541,0,4.022,1.679,4.022,4.398v7.668
				h-3.359V65.88c0-1.591-0.751-2.409-2.033-2.409c-1.282,0-2.1,0.818-2.1,2.409v6.608h-3.359V60.642z"/>
			<path fill="#64C0AF" d="M179.711,69.04c0-2.586,1.967-3.779,4.773-3.779c1.193,0,2.055,0.199,2.895,0.486v-0.199
				c0-1.392-0.862-2.166-2.541-2.166c-1.282,0-2.188,0.243-3.271,0.641l-0.84-2.563c1.304-0.575,2.586-0.95,4.597-0.95
				c1.834,0,3.16,0.486,4,1.326c0.884,0.884,1.282,2.188,1.282,3.779v6.873h-3.249v-1.282c-0.818,0.906-1.945,1.503-3.58,1.503
				C181.545,72.708,179.711,71.427,179.711,69.04z M187.423,68.311v-0.597c-0.574-0.265-1.326-0.442-2.144-0.442
				c-1.436,0-2.32,0.575-2.32,1.68c0,0.906,0.751,1.436,1.834,1.436C186.362,70.388,187.423,69.526,187.423,68.311z"/>
			<path fill="#64C0AF" d="M192.572,70.918l1.436-2.21c1.282,0.928,2.63,1.414,3.735,1.414c0.972,0,1.414-0.354,1.414-0.928
				c0-0.729-1.149-0.972-2.453-1.37c-1.657-0.486-3.536-1.26-3.536-3.602c0-2.409,1.945-3.757,4.331-3.757
				c1.503,0,3.138,0.508,4.42,1.37l-1.282,2.32c-1.171-0.685-2.342-1.105-3.204-1.105c-0.818,0-1.238,0.354-1.238,0.862
				c0,0.663,1.127,0.972,2.409,1.414c1.657,0.552,3.58,1.348,3.58,3.558c0,2.63-1.967,3.823-4.53,3.823
				C195.997,72.708,194.141,72.156,192.572,70.918z"/>
			<rect x="204.747" y="60.642" fill="#64C0AF" width="3.359" height="11.845"/>
		</g>
	</g>
	<g>
		<circle fill="#64C0AF" cx="37.073" cy="43.294" r="31.68"/>
		<g>
			<circle fill="#FFFFFF" cx="44.193" cy="36.175" r="29.148"/>
			<g>
				<path fill="#64C0AF" d="M25.265,50.232"/>
				<path fill="#64C0AF" d="M31.652,31.203"/>
				<g>
					<g>
						<path fill="#57789D" d="M20.853,42.104c0.585,1.965,1.409,3.827,2.443,5.55h41.792c1.034-1.723,1.858-3.585,2.443-5.55H20.853
							z"/>
						<path fill="#57789D" d="M20.59,29.124c-0.453,1.779-0.703,3.638-0.74,5.55h48.684c-0.036-1.912-0.287-3.771-0.74-5.55H20.59z"
							/>
						<path fill="#57789D" d="M19.85,35.614c0.036,1.912,0.287,3.771,0.74,5.55h47.205c0.453-1.779,0.703-3.638,0.74-5.55H19.85z"/>
						<path fill="#57789D" d="M23.891,48.594c1.396,2.103,3.111,3.974,5.074,5.55H59.42c1.963-1.576,3.678-3.447,5.074-5.55H23.891z
							"/>
						<path fill="#57789D" d="M58.167,15.204c-3.956-2.778-8.773-4.414-13.974-4.414c-5.201,0-10.018,1.636-13.975,4.414H58.167z"/>
						<path fill="#57789D" d="M64.494,21.694c-1.396-2.103-3.111-3.974-5.074-5.55H28.965c-1.963,1.576-3.678,3.447-5.074,5.55
							H64.494z"/>
						<path fill="#57789D" d="M30.218,55.084c3.956,2.778,8.773,4.414,13.974,4.414s10.018-1.636,13.974-4.414H30.218z"/>
						<path fill="#57789D" d="M67.532,28.184c-0.585-1.965-1.409-3.827-2.443-5.55H23.296c-1.034,1.723-1.858,3.585-2.443,5.55
							H67.532z"/>
					</g>
				</g>
				<g>
					<path fill="#FFFFFF" d="M39.171,50.564h-0.203c-0.736,0-1.549-0.778-1.549-1.545V37.887c0-0.762,0.715-1.381,1.378-1.388
						L41.62,36.5c-1.138-0.884-1.831-2.091-1.831-3.603c0-1.807,1.073-3.388,2.604-4.127h-3.835
						c1.658-1.067,2.757-2.927,2.757-5.045c0-1.746-0.747-3.316-1.937-4.413c-1.068-0.985-2.494-1.587-4.062-1.587
						c-0.149,0-0.295,0.008-0.441,0.018c-3.106,0.226-5.558,2.817-5.558,5.981c0,2.118,1.1,3.978,2.757,5.045h-4.473v0.028
						c-0.785,0.14-1.767,0.845-1.767,1.753v14.867c0,1.016,1.142,2.005,2.158,2.005h0.074c0.877,0,1.498-0.684,1.695-1.524v12.936
						c0,1.502,1.345,2.726,2.847,2.726h0.087c1.374,0,2.507-1.02,2.69-2.344c0.184,1.324,1.317,2.344,2.691,2.344h0.086
						c0.798,0,1.415-0.351,2.004-0.898V49.766C39.972,50.152,39.643,50.564,39.171,50.564L39.171,50.564z"/>
					<path fill="#FFFFFF" d="M49.808,18.873c-1.499,1.09-2.474,2.857-2.474,4.852c0,2.119,1.1,3.978,2.757,5.045h-3.815
						c1.528,0.735,2.585,2.308,2.585,4.114c0,1.512-0.74,2.732-1.878,3.616l2.88,0.006c0.884,0.08,1.3,0.755,1.3,1.476v11.226
						c0,0.767-0.534,1.551-1.302,1.551h-0.055c-0.543,0-0.998-0.458-1.391-0.919v10.918c0.589,0.491,1.321,0.8,2.071,0.8h0.086
						c1.374,0,2.508-1.02,2.691-2.344c0.183,1.324,1.316,2.344,2.69,2.344h0.087c1.501,0,2.584-1.222,2.584-2.725V45.897
						c0.196,0.841,1.081,1.525,1.958,1.525h0.074c1.016,0,1.894-0.989,1.894-2.006V30.55c0-0.952-0.785-1.682-1.767-1.771v-0.01
						h-4.21c1.658-1.067,2.757-2.928,2.757-5.045c0-3.162-2.447-5.751-5.551-5.981c-0.148-0.011-0.297-0.018-0.448-0.018
						C52.015,17.726,50.797,18.151,49.808,18.873L49.808,18.873z"/>
				</g>
				<path fill="#57789D" d="M49.935,36.502l-2.904-0.006c1.148-0.891,1.894-2.122,1.894-3.646c0-0.191-0.018-0.378-0.041-0.564
					c0.001-0.04,0.007-0.079,0.007-0.12c0-2.297-2.014-4.16-4.499-4.16c-2.338,0-4.259,1.649-4.478,3.758
					c-0.088,0.353-0.137,0.721-0.137,1.099c0,1.524,0.699,2.742,1.846,3.633l-2.847-0.001c-0.668,0.008-1.389,0.631-1.389,1.4
					v11.225c0,0.773,0.82,1.558,1.562,1.558h0.205c0.476,0,0.807-0.416,1.004-0.804V60.86l8.316,0.098v-11.01
					c0.396,0.465,0.856,0.927,1.403,0.927h0.056c0.774,0,1.313-0.791,1.313-1.564V37.99C51.246,37.264,50.827,36.582,49.935,36.502z
					"/>
			</g>
		</g>
	</g>
</g>
</svg>
